<svg xmlns="http://www.w3.org/2000/svg" xml:space="preserve" data-id="lg_IoSb7IXfcfOnfiamE3" data-version="1" viewBox="-2.5 -2.5 2005 1505"><path fill="#fff" stroke="transparent" d="M0 0h2000v1500H0z"/><g data-padding="20"><g transform="translate(-1651.786 -1248.023)scale(2.5829)"><rect width="357.889" height="184.958" x="447.459" y="281.075" fill="none" rx="0" ry="0" transform="translate(501.56 414.74)"/><path fill="#131313" d="M953.693 711.584h50.95l-.44 18.57h-3.35q.18-5.19-.61-8.63-.79-3.43-3.13-5.14-2.33-1.72-6.9-1.63l-7.48.09-2.91 47.87q-.09 2.37-.26 4.09-.18 1.72-.35 2.86 1.23-.09 2.46-.13 1.23-.05 2.42-.13 1.19-.09 2.42-.09l-.18 3.87h-20.32l.17-2.9q2.91-.18 4.18-1.59 1.28-1.41 1.72-3.83t.61-5.41l2.73-44.61-9.06.08q-5.55 0-8.01 3.7t-2.9 11.53h-3.26Zm76.46 16.63q4.75 0 8.53 2.25 3.79 2.24 5.99 6.55t2.2 10.47q0 7.04-2.55 13.16-2.56 6.12-7.35 9.81-4.8 3.7-11.66 3.7-5.81 0-9.55-2.64t-5.54-7.13q-1.81-4.49-1.81-9.94 0-7.13 2.6-13.12 2.59-5.98 7.48-9.54 4.88-3.57 11.66-3.57m-1.32 3.26q-3.87-.09-6.69 2.59-2.82 2.69-4.36 7.26-1.54 4.58-1.62 10.21-.09 2.99.35 6.34.44 3.34 1.54 6.25 1.1 2.9 3.08 4.75t4.97 1.93q3.52.09 5.98-1.89 2.47-1.98 3.96-5.15 1.5-3.16 2.25-6.77t.83-6.78q.09-3.08-.3-6.33-.4-3.26-1.54-6.08-1.15-2.81-3.17-4.53-2.03-1.71-5.28-1.8m40.3 42.68q-3.52 0-5.63-1.59-2.11-1.58-3.04-4.22-.92-2.64-.92-5.63 0-4.93.7-9.95.71-5.01 1.41-9.28.71-4.27.71-6.73 0-1.67-.4-2.91-.4-1.23-1.98-1.23-1.41 0-3.12 1.94-1.72 1.93-3.04 6.6l-2.46-.53q.26-1.58 1.05-3.65t2.16-4.09q1.36-2.03 3.34-3.35t4.62-1.32q3.52 0 5.33 2.2 1.8 2.2 1.8 6.34 0 2.46-.44 6.07t-1.01 7.52q-.57 3.92-1.01 7.62-.44 3.69-.44 6.51 0 .97.3 2.29.31 1.32 1.24 2.28.92.97 2.59.97 2.47 0 4.84-2.29 2.38-2.28 4.49-6.16 2.11-3.87 3.78-8.58 1.68-4.7 2.6-9.68.92-4.97.92-9.46 0-1.32-.04-2.42t-.13-2.24h7.39q.09.62.09 1.1v1.19q0 1.49-.18 3.56-.17 2.07-.53 5.46-.35 3.39-1.05 8.93-.62 5.1-.93 8.01-.3 2.9-.48 4.35-.18 1.46-.22 2.25t-.04 1.76q0 1.58.48 2.73.48 1.14 1.89 1.14 1.5 0 3.3-1.89 1.81-1.89 3.13-6.56l2.46.53q-.26 1.58-1.1 3.65t-2.24 4.09q-1.41 2.03-3.44 3.35-2.02 1.32-4.66 1.32-3.52 0-5.15-2.2t-1.63-5.72q0-2.55.49-5.55.48-2.99 1.1-6.24h-.27q-2.99 8-5.72 12.27-2.72 4.27-5.36 5.85-2.64 1.59-5.55 1.59m58.35-45.94q3.78 0 6.77 1.37 2.99 1.36 4.71 3.69t1.72 5.24q0 1.93-.97 3.12t-2.73 1.19q-2.11.09-2.95-1.23-.83-1.32-.83-2.29 0-.79.22-1.67t.92-1.67q-.44-2.47-2.42-3.57t-4.53-1.1q-3.79 0-6.34 2.03-2.55 2.02-4.05 5.28-1.49 3.25-2.15 6.99t-.66 7.26q0 6.16 1.36 9.9 1.37 3.74 3.83 5.41 2.46 1.68 5.54 1.68 2.29 0 4.76-1.02 2.46-1.01 4.75-3.43t3.96-6.64l3.08 1.49q-2.2 5.11-5.11 8.14-2.9 3.04-6.2 4.4-3.3 1.37-6.73 1.37-7.75 0-12.37-4.71t-4.62-14.56q0-4.32 1.24-8.98 1.23-4.66 3.78-8.67 2.55-4 6.56-6.51 4-2.51 9.46-2.51m55.17 45.94q-4.13 0-5.63-2.2t-1.5-6.25q0-2.46.4-5.85t.88-7.17q.48-3.79.88-7.66t.4-7.3q0-1.06-.36-2.29-.35-1.23-1.23-2.16-.88-.92-2.64-.92-2.37 0-4.75 2.15-2.38 2.16-4.53 5.86-2.16 3.69-3.87 8.4-1.72 4.71-2.69 9.77t-.97 9.99q0 1.32.05 2.42.04 1.1.13 2.24h-7.22q-.08-.62-.08-1.1v-1.19q0-2.37.26-7.3t.7-11.22 1.02-12.89q.57-6.6 1.18-12.54.62-5.94 1.24-9.99.35-2.29.48-2.91.13-.61.31-1.76l-6.16.36.35-3.52q3.87 0 6.03-.36 2.15-.35 3.3-.88 1.14-.52 1.85-1.14h2.55q-.35 2.2-.79 4.93t-.88 5.37-.71 4.66q-.26 2.2-.66 5.68-.39 3.47-.79 7.3t-.7 7.35q-.31 3.52-.49 5.81h.27q2.99-8.01 5.89-12.24 2.91-4.22 5.77-5.8 2.86-1.59 5.67-1.59 5.28 0 7.48 3.39t2.2 8.05q0 4.84-.61 9.9-.62 5.06-1.24 9.33-.61 4.27-.61 6.82 0 1.58.39 2.82.4 1.23 1.98 1.23 1.5 0 3.3-1.89 1.81-1.9 3.13-6.65l2.2.62q-.27 1.49-1.06 3.61-.79 2.11-2.15 4.09-1.37 1.98-3.35 3.3t-4.62 1.32m-197.29 21.54q7.74 0 13.28 2.73 5.55 2.73 9.11 7.17 3.57 4.44 5.24 9.86 1.67 5.41 1.67 10.78 0 5.63-1.98 11.57t-5.94 11-9.99 8.18q-6.03 3.13-14.12 3.13-7.75 0-13.29-2.69-5.54-2.68-9.11-7.08-3.56-4.4-5.23-9.73-1.68-5.32-1.68-10.69 0-6.77 2.25-12.93 2.24-6.16 6.47-10.96 4.22-4.8 10.12-7.57 5.89-2.77 13.2-2.77m-.44 3.52q-5.55 0-9.82 2.55-4.26 2.55-7.21 6.78-2.95 4.22-4.53 9.28-1.59 5.06-1.59 10.17-.09 4.48 1.06 9.46 1.14 4.97 3.65 9.28t6.6 7.04 9.99 2.73q5.72 0 10.03-2.55 4.31-2.56 7.22-6.82 2.9-4.27 4.4-9.38 1.49-5.1 1.49-10.12 0-5.19-1.36-10.25-1.37-5.06-4.05-9.15t-6.64-6.56q-3.96-2.46-9.24-2.46m61.24-7.4q3.26-.09 5.02 1.1t1.76 3.47q0 .62-.31 1.5t-1.1 1.45-2.11.57q-1.67 0-2.64-1.23t-.88-3.17q-.26-.17-1.06-.3-.79-.14-1.49-.05-2.11.18-3.48 1.72-1.36 1.54-2.24 4.13-.88 2.6-1.41 6.08-.53 3.47-.88 7.61h12.5l-.27 3.43-12.49.18q-.09 2.28-.22 4.66-.14 2.38-.27 4.88-.13 2.51-.31 5.02-.17 2.51-.44 5.06-.61 6.42-1.14 12.8t-1.54 12.1-2.95 10.17q-1.93 4.44-5.32 6.99-3.39 2.56-8.67 2.56-3.34 0-5.1-1.19t-1.76-3.39q0-.7.35-1.54t1.14-1.5 2.11-.57q1.59.09 2.51 1.19.93 1.1.93 2.86.96.7 2.55.7 3.08 0 4.71-3.25 1.62-3.26 2.42-9.02.79-5.77 1.27-13.38.49-7.61 1.28-16.32.17-2.38.35-4.75.18-2.38.35-4.76.18-2.37.4-4.7.22-2.34.48-4.54l-7.74.09.44-3.78h7.74q.97-6.43 2.82-11.53t5.37-8.18 9.32-3.17m56.15 68.3q-8.8 0-15.27-3.7t-9.77-10.65-2.77-16.54q.35-6.25 2.51-12.19 2.15-5.94 6.11-10.78t9.82-7.7q5.85-2.86 13.5-2.86 3.17 0 6.38.57 3.22.57 6.21 1.63t5.37 2.55l-.18-4.13h4.84l-1.06 20.15h-3.16q-.09-5.55-2.47-9.37-2.37-3.83-6.42-5.86-4.05-2.02-9.15-2.02-4.67 0-8.89 2.07-4.23 2.07-7.48 5.81-3.26 3.74-5.28 8.84-2.03 5.1-2.38 11.26-.44 8.28 2.2 14.79t7.79 10.21q5.15 3.69 12.1 3.69 2.38 0 5.02-.44t5.28-1.45 5.01-2.51l.53-10.29q.18-2.29.26-4.49l.18-4.4q-1.5.09-3.08.17-1.58.09-3.08.18l.18-3.87h19.62l-.18 2.9q-2.46 0-3.82 1.28-1.37 1.27-1.98 3.08-.62 1.8-.8 3.52-.17 1.71-.26 2.59l-.7 13.38h-2.12q-1.4 0-3.87.53-2.46.53-5.72 1.76-2.73 1.05-6.42 1.67-3.7.62-6.6.62m50.25-1.41h-7.31q-.09-.62-.09-1.1v-1.19q0-1.5.09-3.56.09-2.07.4-5.5.31-3.44.92-8.98.62-5.72.97-8.62.35-2.91.53-4.27.17-1.37.17-2.25.09-1.76-.22-3.43-.3-1.67-2.15-1.67-1.41 0-3.26 1.94-1.85 1.93-3.17 6.6l-2.46-.53q.26-1.59 1.1-3.65.84-2.07 2.24-4.1 1.41-2.02 3.44-3.34 2.02-1.32 4.66-1.32 3.96 0 5.28 2.73t1.14 7.3q-.08 1.94-.48 4.27t-.84 4.88h.27q2.55-7.65 5.32-11.79 2.77-4.13 5.63-5.76t5.68-1.63q2.64 0 4.4 1.36 1.76 1.37 1.76 3.74 0 1.59-1.1 2.91t-2.95 1.32q-1.58 0-2.73-.97-1.14-.97-1.32-2.73-2.46-.53-4.79 1.59-2.33 2.11-4.4 6.02-2.07 3.92-3.61 8.76t-2.42 9.86q-.88 5.01-.88 9.32 0 1.32.04 1.98.05.66.14 1.81m52.8-44.97q2.64 0 5.8.4 3.17.39 5.99 1.1-.71 5.28-1.37 10.51-.66 5.24-1.23 9.95-.57 4.7-.92 8.44t-.35 5.86q0 1.76.26 3.52t2.2 1.76q1.5 0 3.3-1.94t3.12-6.6l2.47.53q-.27 1.58-1.1 3.65-.84 2.07-2.25 4.09-1.4 2.03-3.43 3.35-2.02 1.32-4.66 1.32-3.52 0-5.02-2.2-1.49-2.2-1.49-5.72 0-2.56.48-5.55t1.1-6.25h-.26q-2.12 6.52-4.36 10.43-2.24 3.92-4.49 5.94-2.24 2.03-4.35 2.69-2.12.66-3.96.66-4.76 0-7.97-3.52t-3.21-11.8q0-6.16 1.58-11.7 1.59-5.54 4.8-9.81t8.05-6.69 11.27-2.42m-2.73 3.17q-3.96 0-6.91 2.2t-4.88 5.94q-1.94 3.74-2.86 8.36-.93 4.62-.93 9.46 0 5.63 1.23 9.28 1.24 3.65 4.49 3.65 2.38 0 4.8-2.37 2.42-2.38 4.53-6.38 2.11-4.01 3.78-8.98 1.68-4.97 2.64-10.16.97-5.19.97-9.95-1.32-.52-3.08-.79-1.76-.26-3.78-.26m46.46-3.17q3.79 0 6.78 1.36 2.99 1.37 4.71 3.7 1.71 2.33 1.71 5.24 0 1.93-.97 3.12-.96 1.19-2.72 1.19-2.12.09-2.95-1.23-.84-1.32-.84-2.29 0-.79.22-1.67t.93-1.68q-.44-2.46-2.42-3.56t-4.54-1.1q-3.78 0-6.33 2.02-2.55 2.03-4.05 5.28-1.5 3.26-2.16 7t-.66 7.26q0 6.16 1.37 9.9 1.36 3.74 3.83 5.41 2.46 1.67 5.54 1.67 2.29 0 4.75-1.01 2.47-1.01 4.75-3.43 2.29-2.42 3.96-6.64l3.08 1.49q-2.2 5.11-5.1 8.14-2.9 3.04-6.2 4.4-3.3 1.37-6.74 1.37-7.74 0-12.36-4.71t-4.62-14.57q0-4.31 1.23-8.97 1.23-4.67 3.79-8.67 2.55-4 6.55-6.51 4.01-2.51 9.46-2.51m41.98 0q3.17 0 5.98.97 2.82.97 4.58 3.17t1.76 5.98q0 3.61-2.47 6.25-2.46 2.64-6.42 4.35-3.96 1.72-8.45 2.78-4.49 1.05-8.62 1.49 0 5.46 1.1 9.15 1.1 3.7 3.3 5.55t5.63 1.85q2.55 0 5.15-1.15 2.59-1.14 4.97-3.47 2.38-2.34 4.31-6.03l2.91 1.67q-2.47 4.58-5.28 7.57-2.82 2.99-6.16 4.4-3.35 1.41-7.4 1.41-8.36 0-12.32-5.24t-3.96-13.77q0-5.11 1.32-9.95t3.96-8.66q2.64-3.83 6.69-6.08 4.05-2.24 9.42-2.24m-1.23 2.99q-4.05 0-6.65 2.73-2.59 2.73-3.96 7.04-1.36 4.31-1.71 9.06 4.66-.61 8.88-2.2 4.23-1.58 6.96-4.09 2.72-2.51 2.72-5.85 0-2.82-1.54-4.75-1.54-1.94-4.7-1.94m-450 70.925c-25.018 0-48.515-11.91-66.166-33.538-17.577-21.533-27.252-50.143-27.252-80.557s9.675-59.02 27.252-80.553c17.65-21.627 41.148-33.538 66.166-33.538s48.515 11.91 66.17 33.538c17.572 21.534 27.248 50.143 27.248 80.553 0 30.418-9.675 59.024-27.248 80.557-17.655 21.627-41.152 33.538-66.17 33.538m0-224.906c-49.7 0-90.138 49.709-90.138 110.81s40.438 110.816 90.138 110.816c49.704 0 90.138-49.713 90.138-110.815s-40.434-110.81-90.138-110.81"/><rect width="99.318" height="119.477" x="576.744" y="313.816" fill="none" rx="0" ry="0" transform="translate(210.18 409.22)"/><path fill="#131313" d="M812.063 815.984v-68.73h18.61v-5.28h-42.51v5.28h18.08v68.73Zm23.04-53.71v34.04q0 6.87 3.01 11.53 3.02 4.65 8.09 6.97 5.08 2.33 11.31 2.33 6.56 0 11.58-2.54 5.02-2.53 7.83-7.19 2.8-4.65 2.8-11.1v-33.94q0-10.36-5.82-16.23-5.81-5.87-16.28-5.87t-16.49 5.61q-6.03 5.6-6.03 16.39m6.03 33.94v-34.9q0-5.18 2-8.56 2.01-3.38 5.66-5.13 3.65-1.74 8.51-1.74 5.08 0 8.78 1.74 3.7 1.75 5.71 5.13t2.01 8.56v34.9q0 5.18-2.12 8.61-2.11 3.44-5.81 5.08t-8.57 1.64q-4.65 0-8.3-1.75-3.65-1.74-5.76-5.13-2.11-3.38-2.11-8.45"/><path fill="#131313" d="M838.543 879.46c-22.577 0-43.782-11.04-59.71-31.084-15.863-19.957-24.595-46.474-24.595-74.662s8.733-54.701 24.594-74.66c15.93-20.044 37.134-31.083 59.711-31.083s43.782 11.04 59.714 31.084c15.858 19.958 24.59 46.474 24.59 74.659 0 28.192-8.732 54.705-24.59 74.662-15.932 20.045-37.137 31.084-59.714 31.084m0-208.45c-44.85 0-81.344 46.073-81.344 102.704s36.493 102.706 81.344 102.706c44.855 0 81.345-46.075 81.345-102.706s-36.49-102.703-81.345-102.703"/></g><path fill="transparent" stroke="transparent" stroke-width="2.679" d="M250 444.643h1500v610.714H250z"/></g></svg>